<?xml version="1.0" standalone="no"?>
<!DOCTYPE svg PUBLIC "-//W3C//DTD SVG 20010904//EN"
 "http://www.w3.org/TR/2001/REC-SVG-20010904/DTD/svg10.dtd">
<svg version="1.0" xmlns="http://www.w3.org/2000/svg"
 width="135.000000pt" height="133.000000pt" style="background-color:#85EA2D;" viewBox="0 0 135.000000 133.000000"
 preserveAspectRatio="xMidYMid meet">

<g transform="translate(0.000000,133.000000) scale(0.100000,-0.100000)"
fill="#000000" stroke="none">
<path d="M530 1314 c-36 -7 -107 -34 -159 -60 -278 -138 -420 -452 -341 -759
72 -282 333 -484 630 -487 116 -1 188 16 299 69 75 36 108 59 170 121 87 86
127 150 167 267 25 70 28 94 28 200 0 103 -4 132 -27 200 -108 326 -438 520
-767 449z m299 -71 c296 -81 486 -387 427 -684 -38 -189 -155 -343 -323 -427
-106 -52 -173 -66 -298 -60 -159 8 -278 61 -391 175 -112 111 -174 263 -174
422 0 245 157 470 387 557 118 45 252 51 372 17z"/>
<path d="M403 995 c-44 -19 -54 -44 -63 -157 -8 -105 -18 -128 -57 -128 -22 0
-24 -3 -21 -42 3 -36 7 -43 28 -48 35 -8 50 -44 50 -120 0 -126 30 -170 115
-170 33 0 35 2 35 34 0 30 -4 35 -27 38 -32 4 -41 26 -42 110 -1 64 -13 103
-42 134 -19 20 -19 21 1 39 26 23 40 75 40 148 0 71 12 97 45 97 22 0 25 4 25
40 0 37 -2 40 -27 40 -16 -1 -42 -7 -60 -15z"/>
<path d="M853 1004 c-7 -3 -13 -21 -13 -39 0 -31 3 -34 32 -37 l33 -3 11 -103
c9 -83 15 -107 33 -126 l23 -24 -23 -31 c-23 -31 -37 -95 -38 -172 -1 -50 -14
-69 -48 -69 -20 0 -23 -5 -23 -35 0 -35 0 -35 44 -35 32 0 52 6 72 23 23 20
27 34 36 118 14 138 14 139 48 146 28 5 30 9 30 49 0 37 -3 44 -20 44 -33 0
-49 39 -56 139 -6 82 -10 98 -33 122 -25 27 -82 44 -108 33z"/>
<path d="M472 698 c-28 -28 -7 -78 33 -78 40 0 61 50 33 78 -7 7 -21 12 -33
12 -12 0 -26 -5 -33 -12z"/>
<path d="M632 698 c-21 -21 -14 -57 14 -70 31 -14 57 -1 62 31 7 42 -46 69
-76 39z"/>
<path d="M790 690 c-27 -50 32 -92 73 -52 18 18 19 25 9 47 -15 32 -66 35 -82
5z"/>
</g>
</svg>
